<svg xmlns="http://www.w3.org/2000/svg" width="175" height="45.104" viewBox="0 0 175 45.104"><g transform="translate(-114.721 -125.728)"><g transform="translate(114.721 162.828)"><path d="M119.808,204.445h-2.966l-.8,2.146h-1.325l2.979-7.751h1.262l2.979,7.751H120.6Zm-2.55-1.136h2.121l-1.06-2.866Z" transform="translate(-114.721 -198.714)" fill="#092241"/><path d="M139.765,198.84h2.613a4.25,4.25,0,0,1,1.546.271,3.272,3.272,0,0,1,1.193.783,3.483,3.483,0,0,1,.758,1.231,4.909,4.909,0,0,1,0,3.181,3.484,3.484,0,0,1-.758,1.231,3.272,3.272,0,0,1-1.193.783,4.249,4.249,0,0,1-1.546.271h-2.613Zm2.563,6.577a2.847,2.847,0,0,0,1.073-.189,2.077,2.077,0,0,0,.783-.543,2.364,2.364,0,0,0,.48-.852,3.547,3.547,0,0,0,.164-1.117,3.594,3.594,0,0,0-.164-1.13,2.368,2.368,0,0,0-.48-.852,2.075,2.075,0,0,0-.783-.543,2.836,2.836,0,0,0-1.073-.189h-1.25v5.416Z" transform="translate(-127.013 -198.714)" fill="#092241"/><path d="M157.766,206.591h-1.313V198.84h1.313Z" transform="translate(-135.204 -198.714)" fill="#092241"/><path d="M167.382,205.4a2.349,2.349,0,0,0,.4-.095,2.3,2.3,0,0,0,.366-.158,1.957,1.957,0,0,0,.328-.221v-1.49H167.01v-1.1h2.676v3.1a3.818,3.818,0,0,1-.6.512,3.306,3.306,0,0,1-.682.359,4.112,4.112,0,0,1-1.483.278,3.944,3.944,0,0,1-1.54-.291,3.279,3.279,0,0,1-1.181-.826,3.7,3.7,0,0,1-.744-1.269,4.819,4.819,0,0,1-.259-1.616,4.367,4.367,0,0,1,.291-1.61,3.782,3.782,0,0,1,.814-1.274,3.61,3.61,0,0,1,1.237-.827,4.023,4.023,0,0,1,1.534-.291,4.5,4.5,0,0,1,.638.044,3.686,3.686,0,0,1,.587.132,3.475,3.475,0,0,1,.524.215,3.183,3.183,0,0,1,.448.277v1.364a5,5,0,0,0-.505-.379,2.963,2.963,0,0,0-.524-.271,2.866,2.866,0,0,0-.562-.158,3.54,3.54,0,0,0-.606-.05,2.6,2.6,0,0,0-1.029.2,2.293,2.293,0,0,0-.814.581,2.632,2.632,0,0,0-.524.9,3.436,3.436,0,0,0-.183,1.143,3.8,3.8,0,0,0,.164,1.142,2.614,2.614,0,0,0,.48.9,2.175,2.175,0,0,0,.764.587,2.382,2.382,0,0,0,1.016.208A2.931,2.931,0,0,0,167.382,205.4Z" transform="translate(-138.514 -198.592)" fill="#092241"/><path d="M181.794,206.591h-1.313V198.84h1.313Z" transform="translate(-146.998 -198.714)" fill="#092241"/><path d="M187.1,198.84h6.463V200H190.99v6.59h-1.313V200H187.1Z" transform="translate(-150.248 -198.714)" fill="#092241"/><path d="M206.248,204.445h-2.966l-.8,2.146h-1.325l2.979-7.751H205.4l2.979,7.751h-1.338Zm-2.55-1.136h2.121l-1.06-2.866Z" transform="translate(-157.148 -198.714)" fill="#092241"/><path d="M219.114,198.84h1.313v6.577h3.724v1.174h-5.037Z" transform="translate(-165.96 -198.714)" fill="#092241"/><path d="M240.314,198.84h2.992a3.653,3.653,0,0,1,1.092.152,2.337,2.337,0,0,1,.833.448,1.936,1.936,0,0,1,.53.732,2.533,2.533,0,0,1,.183.991,2.645,2.645,0,0,1-.132.865,1.837,1.837,0,0,1-.391.662,2.07,2.07,0,0,1-.625.454,3.02,3.02,0,0,1-.82.253l2.234,3.194H244.72l-2.146-3.144h-.947v3.144h-1.313Zm1.313,3.51h1.653a1.871,1.871,0,0,0,.581-.083,1.186,1.186,0,0,0,.429-.239,1,1,0,0,0,.265-.379,1.376,1.376,0,0,0,0-.972.99.99,0,0,0-.265-.379,1.187,1.187,0,0,0-.429-.24,1.888,1.888,0,0,0-.581-.081h-1.653Z" transform="translate(-176.365 -198.714)" fill="#092241"/><path d="M260.75,198.84V200h-3.775v2.045H260.4v1.148h-3.421v2.222h3.775v1.174h-5.062V198.84Z" transform="translate(-183.911 -198.714)" fill="#092241"/><path d="M273.942,204.445h-2.966l-.8,2.146h-1.325l2.979-7.751H273.1l2.979,7.751h-1.338Zm-2.55-1.136h2.121l-1.06-2.866Z" transform="translate(-190.374 -198.714)" fill="#092241"/><path d="M286.833,198.84h1.313v6.577h3.724v1.174h-5.036Z" transform="translate(-199.198 -198.714)" fill="#092241"/><path d="M297.693,198.84h6.463V200h-2.575v6.59h-1.313V200h-2.575Z" transform="translate(-204.528 -198.714)" fill="#092241"/><path d="M318.646,198.84h1.388l-2.815,4.658v3.093h-1.3V203.5l-2.8-4.658h1.426l2.058,3.472Z" transform="translate(-212.099 -198.714)" fill="#092241"/><path d="M336.926,200.972a3.774,3.774,0,0,1,.783-1.275,3.409,3.409,0,0,1,1.193-.82,3.879,3.879,0,0,1,1.5-.284,4.1,4.1,0,0,1,.618.044,3.034,3.034,0,0,1,.543.132,3.539,3.539,0,0,1,.48.208,2.222,2.222,0,0,1,.417.284v1.364a5.234,5.234,0,0,0-.474-.379,2.633,2.633,0,0,0-.486-.271,2.532,2.532,0,0,0-.517-.158,3.049,3.049,0,0,0-.568-.05,2.431,2.431,0,0,0-1,.2,2.161,2.161,0,0,0-.776.581,2.638,2.638,0,0,0-.492.9,3.674,3.674,0,0,0-.17,1.143,3.618,3.618,0,0,0,.17,1.136,2.652,2.652,0,0,0,.492.9,2.158,2.158,0,0,0,.776.58,2.422,2.422,0,0,0,1,.2,3.05,3.05,0,0,0,.568-.05,2.752,2.752,0,0,0,.517-.152,2.5,2.5,0,0,0,.493-.265,3.819,3.819,0,0,0,.467-.379v1.364a2.226,2.226,0,0,1-.417.284,3.536,3.536,0,0,1-.48.208,3,3,0,0,1-.543.132,4.1,4.1,0,0,1-.618.044,3.879,3.879,0,0,1-1.5-.284,3.41,3.41,0,0,1-1.193-.82,3.775,3.775,0,0,1-.783-1.275,4.87,4.87,0,0,1,0-3.244Z" transform="translate(-223.649 -198.592)" fill="#092241"/><path d="M358.543,204.184a3.92,3.92,0,0,1-.745,1.276,3.315,3.315,0,0,1-1.143.839,3.606,3.606,0,0,1-2.866,0,3.313,3.313,0,0,1-1.142-.839,3.817,3.817,0,0,1-.738-1.276,4.726,4.726,0,0,1-.259-1.59,4.783,4.783,0,0,1,.259-1.6,3.736,3.736,0,0,1,.738-1.275,3.35,3.35,0,0,1,1.142-.833,3.606,3.606,0,0,1,2.866,0,3.351,3.351,0,0,1,1.143.833,3.834,3.834,0,0,1,.745,1.275,4.7,4.7,0,0,1,.265,1.6A4.641,4.641,0,0,1,358.543,204.184Zm-1.218-2.721a2.656,2.656,0,0,0-.461-.9,2.129,2.129,0,0,0-.719-.587,2.142,2.142,0,0,0-1.843,0,2.077,2.077,0,0,0-.714.587,2.729,2.729,0,0,0-.454.9,4.125,4.125,0,0,0,0,2.26,2.737,2.737,0,0,0,.454.9,2.081,2.081,0,0,0,.714.587,2.142,2.142,0,0,0,1.843,0,2.133,2.133,0,0,0,.719-.587,2.664,2.664,0,0,0,.461-.9,4.124,4.124,0,0,0,0-2.26Z" transform="translate(-231.012 -198.592)" fill="#092241"/><path d="M373.574,204.925l-2.412-3.762v5.428h-1.288V198.84H371.1l2.512,4.04,2.5-4.04h1.174v7.751H376v-5.428l-2.373,3.762Z" transform="translate(-239.957 -198.714)" fill="#092241"/><path d="M390.728,203.7v2.891h-1.313V198.84h2.992A3.539,3.539,0,0,1,393.5,199a2.371,2.371,0,0,1,.839.467,1.983,1.983,0,0,1,.537.764,2.791,2.791,0,0,1,.183,1.048,2.756,2.756,0,0,1-.183,1.035,1.978,1.978,0,0,1-.537.764,2.373,2.373,0,0,1-.839.467,3.537,3.537,0,0,1-1.092.158Zm2.241-1.231a1.229,1.229,0,0,0,.435-.265,1.084,1.084,0,0,0,.265-.411,1.48,1.48,0,0,0,.089-.517,1.521,1.521,0,0,0-.089-.531,1.114,1.114,0,0,0-.259-.41,1.16,1.16,0,0,0-.429-.265,1.739,1.739,0,0,0-.6-.095h-1.654v2.588h1.654A1.7,1.7,0,0,0,392.969,202.469Z" transform="translate(-249.548 -198.714)" fill="#092241"/><path d="M407.323,204.445h-2.966l-.8,2.146h-1.325l2.979-7.751h1.263l2.979,7.751h-1.338Zm-2.55-1.136h2.121l-1.061-2.866Z" transform="translate(-255.841 -198.714)" fill="#092241"/><path d="M426.423,206.591h-1.01l-3.964-5.643v5.643h-1.262V198.84h1.237l3.736,5.378V198.84h1.263Z" transform="translate(-264.652 -198.714)" fill="#092241"/><path d="M441.636,198.84h1.389L440.21,203.5v3.093h-1.3V203.5l-2.8-4.658h1.426l2.058,3.472Z" transform="translate(-272.466 -198.714)" fill="#092241"/></g><g transform="translate(114.853 125.728)"><path d="M122.042,143.543h-7.063v3.325H117.9v13.754h-2.752v3.465H125.57v-3.465h-2.923V143.543Z" transform="translate(-114.979 -134.472)" fill="#092241"/><path d="M119.492,128.6a2.915,2.915,0,1,0,2.915-2.872,2.9,2.9,0,0,0-2.915,2.872" transform="translate(-117.194 -125.728)" fill="#092241"/><path d="M344.769,143.543h-7.063v3.325h2.923v13.754h-2.751v3.465H348.3v-3.465h-2.924V143.543Z" transform="translate(-224.3 -134.472)" fill="#092241"/><path d="M342.219,128.6a2.915,2.915,0,1,0,2.915-2.872,2.9,2.9,0,0,0-2.915,2.872" transform="translate(-226.514 -125.728)" fill="#092241"/><path d="M146.954,146.443v-3.2h-7.483v3.325h2.91v13.754h-3v3.465h10.4v-3.465h-2.828v-8.7c0-1.739,1.2-5.147,4.963-5.147a4.31,4.31,0,0,1,3.6,4.046l.005,9.8H152.79l-.021,3.465h10.144v-3.465h-2.657V149c0-4.479-3.641-6.076-6.406-6.076-5.4,0-6.691,3.551-6.9,3.521" transform="translate(-126.957 -134.167)" fill="#092241"/><path d="M411.051,146.443v-3.2h-7.482v3.325h2.91v13.754h-3v3.465h10.4v-3.465h-2.828v-8.7c0-1.739,1.2-5.147,4.963-5.147a4.311,4.311,0,0,1,3.6,4.046l.005,9.8h-2.728l-.021,3.465H427.01v-3.465h-2.656V149c0-4.479-3.642-6.076-6.407-6.076-5.4,0-6.691,3.551-6.9,3.521" transform="translate(-256.583 -134.167)" fill="#092241"/><path d="M189.441,132.175v4.888H185.9v3.5h3.545v12.2c0,1.558.779,4.83,4.2,4.83a38.062,38.062,0,0,0,5.166-.352v-3.312a16.155,16.155,0,0,1-2.475.256c-1.275.074-2.315-.856-2.315-2.812V140.56h5.132v-3.5h-5.132V130.34Z" transform="translate(-149.787 -127.992)" fill="#092241"/><path d="M230.032,157.425a5.771,5.771,0,0,1-5.37,2.886c-3.114,0-5.511-1.987-5.535-6.021h14.7v-.572c0-5.913-2.906-11.615-9.287-11.615-5.668,0-9.98,3.973-9.98,10.67,0,4.452,1.688,10.839,10.255,10.839a14.915,14.915,0,0,0,8.342-2.583v-3.6Zm-5.413-11.955c3.431,0,4.744,3.174,4.744,5.395H219.27c0-1.639.514-5.395,5.349-5.395" transform="translate(-163.855 -133.765)" fill="#092241"/><path d="M271.342,143.543h-2.516c-2.276,0-3.068,1.809-4.426,3.722v-3.722h-7.324v3.325h3.405v13.754h-3.495v3.465h11.248v-3.465h-3.523V154.6c0-2.753.787-7.569,4.568-7.569h2.669v-3.49Z" transform="translate(-184.68 -134.472)" fill="#092241"/><path d="M360.318,153.28c0,6.18,3.974,10.84,10.152,10.84,6.2,0,10.365-4.66,10.365-10.84s-4.145-10.841-10.324-10.841c-6.2,0-10.194,4.659-10.194,10.841m4.821,0c0-3.421,2.195-7.2,5.331-7.2,3.161,0,5.543,3.779,5.543,7.2s-2.382,7.2-5.543,7.2c-3.136,0-5.331-3.777-5.331-7.2" transform="translate(-235.398 -133.93)" fill="#092241"/><path d="M445.455,143.756v-.384h2.759v.384h-1.151v3.072h-.457v-3.072Z" transform="translate(-277.185 -134.388)" fill="#092241"/><path d="M452.275,143.372l1.092,2.9,1.1-2.9h.63v3.456h-.439v-2.875h-.01l-1.079,2.875h-.392l-1.079-2.875h-.01v2.875h-.439v-3.456Z" transform="translate(-280.224 -134.388)" fill="#092241"/></g><path d="M303.739,143.543v3.376h2.1l-3.829,4.164-3.828-4.164h2.1v-3.376h-9.017v3.376h1.9l6.334,6.9-6.334,6.9h-1.9v3.376h9.017v-3.376h-2.1l3.828-4.164,3.829,4.164h-2.1v3.376h9.016v-3.376h-1.9l-6.334-6.9,6.334-6.9h1.9v-3.376Z" transform="translate(-86.653 -8.744)" fill="#092241"/></g></svg>